<svg width="16" height="20" viewBox="0 0 16 20" fill="none" xmlns="http://www.w3.org/2000/svg"><path d="M9.833 1.75v3.667a.917.917 0 0 0 .917.916h3.667" stroke="#2E5A75" stroke-width="2" stroke-linecap="round" stroke-linejoin="round"/><path d="M14.417 10v6.417a1.632 1.632 0 0 1-2.842 1.283 1.513 1.513 0 0 0-2.383 0 1.513 1.513 0 0 1-2.384 0 1.513 1.513 0 0 0-2.383 0 1.632 1.632 0 0 1-2.842-1.283V3.583A1.833 1.833 0 0 1 3.417 1.75h6.416l4.584 4.583v3.896" stroke="#2E5A75" stroke-width="2" stroke-linecap="round" stroke-linejoin="round"/></svg>