<svg width="22" height="18" viewBox="0 0 22 18" fill="none" xmlns="http://www.w3.org/2000/svg"><path d="M12.1 0a9.1 9.1 0 0 0-6.417 2.636A8.96 8.96 0 0 0 3.025 9H0l3.923 3.89.07.14L8.067 9H5.042c0-3.87 3.156-7 7.059-7s7.059 3.13 7.059 7-3.157 7-7.06 7c-1.945 0-3.71-.79-4.98-2.06l-1.433 1.42a9 9 0 0 0 2.941 1.956c1.1.453 2.281.686 3.473.684a9.12 9.12 0 0 0 6.417-2.636A8.96 8.96 0 0 0 21.177 9a8.96 8.96 0 0 0-2.659-6.364A9.12 9.12 0 0 0 12.101 0m-1.008 5v5l4.316 2.54.726-1.21-3.529-2.08V5z" fill="#000"/></svg>