<svg width="19" height="20" viewBox="0 0 19 20" fill="none" xmlns="http://www.w3.org/2000/svg"><path fill-rule="evenodd" clip-rule="evenodd" d="M2.208 7.375a7.292 7.292 0 0 1 14.584 0v3.92l1.898 3.797a1.145 1.145 0 0 1-1.025 1.658h-4.13a4.169 4.169 0 0 1-8.07 0h-4.13A1.146 1.146 0 0 1 .31 15.092l1.898-3.796zm5.488 9.375a2.083 2.083 0 0 0 3.608 0zM9.5 2.167a5.21 5.21 0 0 0-5.208 5.208v3.92c0 .324-.076.643-.22.932l-1.219 2.44h13.295l-1.219-2.44a2.1 2.1 0 0 1-.22-.931V7.375A5.21 5.21 0 0 0 9.5 2.167" fill="#000" fill-opacity=".6"/></svg>