<svg width="21" height="21" viewBox="0 0 21 21" fill="none" xmlns="http://www.w3.org/2000/svg"><g clip-path="url(#a)" fill="#2E5A75"><path d="M15.094 15.094v1.969H5.578a2.953 2.953 0 1 1 0-5.907h.328V9.844h-.328a4.266 4.266 0 0 0 0 8.531h9.516v1.969h5.25v-5.25zm3.937 3.937h-2.625v-2.625h2.625z"/><path d="M13.781 14.438H12.47v-1.97H8.53v1.97H7.22v-1.97a1.314 1.314 0 0 1 1.312-1.312h3.938a1.313 1.313 0 0 1 1.312 1.313zM10.5 10.5a1.969 1.969 0 1 1 0-3.938 1.969 1.969 0 0 1 0 3.938m0-2.625a.656.656 0 1 0 0 1.312.656.656 0 0 0 0-1.312"/><path d="M15.422 2.625H5.906V.656H.656v5.25h5.25V3.938h9.516a2.953 2.953 0 1 1 0 5.906h-.328v1.312h.328a4.266 4.266 0 1 0 0-8.531M4.594 4.594H1.969V1.969h2.625z"/></g><defs><clipPath id="a"><path fill="#fff" d="M0 0h21v21H0z"/></clipPath></defs></svg>