<svg width="18" height="14" viewBox="0 0 18 14" fill="none" xmlns="http://www.w3.org/2000/svg"><path d="M8.194 6.419 7.125 5.35a.8.8 0 0 0-.244-.169.7.7 0 0 0-.272-.056.77.77 0 0 0-.534.225.7.7 0 0 0-.206.525q0 .32.206.525l1.594 1.612a.72.72 0 0 0 .525.226.72.72 0 0 0 .525-.226l3.487-3.187q0-.3-.037-.581a.83.83 0 0 0-.244-.488.73.73 0 0 0-.535-.225.73.73 0 0 0-.534.225zM.75 13.75v-1.5H16.5q.318 0 .535.216a.72.72 0 0 1 .215.534q0 .318-.216.535a.72.72 0 0 1-.534.215zM3 11.5q-.619 0-1.059-.44A1.45 1.45 0 0 1 1.5 10V1.75q0-.619.441-1.059T3 .25h12q.619 0 1.06.441.44.441.44 1.059V10q0 .619-.44 1.06a1.44 1.44 0 0 1-1.06.44zM3 10h12V1.75H3z" fill="#0A920A"/></svg>