<svg width="21" height="21" viewBox="0 0 21 21" fill="none" xmlns="http://www.w3.org/2000/svg"><path d="M9.034 3.777c.373-1.536 2.559-1.536 2.932 0a1.51 1.51 0 0 0 2.251.933c1.35-.822 2.896.723 2.074 2.074a1.508 1.508 0 0 0 .932 2.25c1.536.373 1.536 2.559 0 2.932a1.51 1.51 0 0 0-.933 2.251c.822 1.35-.723 2.896-2.074 2.074a1.508 1.508 0 0 0-2.25.932c-.373 1.536-2.559 1.536-2.932 0a1.508 1.508 0 0 0-2.251-.933c-1.35.822-2.896-.723-2.074-2.074a1.508 1.508 0 0 0-.932-2.25c-1.536-.373-1.536-2.559 0-2.932a1.508 1.508 0 0 0 .933-2.251c-.822-1.35.723-2.896 2.074-2.074a1.507 1.507 0 0 0 2.25-.932" stroke="#2E5A75" stroke-width="2" stroke-linecap="round" stroke-linejoin="round"/><path d="M7.875 10.5a2.625 2.625 0 1 0 5.25 0 2.625 2.625 0 0 0-5.25 0" stroke="#2E5A75" stroke-width="2" stroke-linecap="round" stroke-linejoin="round"/></svg>